<svg xmlns="http://www.w3.org/2000/svg" xmlns:xlink="http://www.w3.org/1999/xlink" version="1.1" width="1000" height="1000" viewBox="0 0 1000 1000" xml:space="preserve">
<desc>Created with Fabric.js 3.5.0</desc>
<defs>
</defs>
<rect x="0" y="0" width="100%" height="100%" fill="#ffffff"/>
<g transform="matrix(1.6241 0 0 2.2258 502.8836 497.0954)" id="678857">
<g style="" vector-effect="non-scaling-stroke">
		<g transform="matrix(0.1333 0 0 -0.1333 0.0779 0.4213)">
<path style="stroke: none; stroke-width: 1; stroke-dasharray: none; stroke-linecap: butt; stroke-dashoffset: 0; stroke-linejoin: miter; stroke-miterlimit: 4; is-custom-font: none; font-file-url: none; fill: rgb(30,95,41); fill-rule: nonzero; opacity: 1;" transform=" translate(-2301.1476, -1671.4384)" d="M 1315 3273 c -81 -10 -221 -38 -321 -64 c -61 -16 -114 -29 -118 -29 c -4 0 -4 -4 -1 -10 c 3 -5 0 -7 -9 -4 c -8 3 -106 -20 -218 -51 c -111 -31 -255 -70 -318 -86 c -167 -43 -201 -59 -252 -124 c -46 -58 -51 53 87 -1900 c 52 -733 54 -751 61 -782 c 11 -43 49 -98 90 -130 c 36 -27 42 -28 143 -28 c 58 0 140 5 181 12 c 99 16 374 58 581 88 c 381 57 517 95 692 195 c 48 28 90 50 94 50 c 4 0 25 -9 47 -19 c 26 -13 128 -33 276 -55 c 129 -20 354 -55 500 -78 c 247 -39 279 -42 475 -42 c 199 -1 215 0 307 26 c 252 71 431 225 564 485 c 70 136 95 246 101 428 c 6 165 -13 262 -74 383 l -37 72 l 75 73 c 79 77 162 180 174 216 c 3 12 15 29 24 39 c 19 18 70 176 97 302 c 23 105 23 288 1 369 c -23 85 -86 214 -134 276 c -82 105 -267 233 -403 278 c -121 40 -278 57 -660 72 c -85 3 -264 10 -397 16 c -218 10 -247 9 -292 -6 c -28 -9 -51 -20 -51 -23 c 0 -4 -10 -12 -22 -17 c -48 -21 -71 -97 -199 -660 c -11 -49 -24 -106 -30 -125 c -10 -36 -73 -307 -109 -465 c -26 -113 -52 -219 -57 -224 c -1 -2 -12 8 -24 23 c -11 14 -26 23 -32 19 c -7 -3 -9 -2 -4 2 c 4 5 -7 23 -24 41 c -28 29 -30 34 -18 56 c 58 103 112 229 135 313 c 25 95 26 109 20 260 c -8 239 -40 351 -140 508 c -75 116 -233 233 -381 280 c -114 37 -286 54 -400 40 z m 210 -143 c 290 -42 494 -222 549 -488 c 23 -108 30 -268 16 -353 c -25 -146 -61 -233 -158 -377 l -64 -97 l 23 -15 c 13 -8 38 -27 55 -42 c 17 -15 34 -25 38 -23 c 3 3 5 3 3 0 c -2 -2 20 -30 49 -61 c 29 -31 69 -88 88 -128 c 36 -73 76 -216 76 -273 c 0 -82 21 -19 84 250 c 37 161 83 357 102 437 c 19 80 86 362 149 628 c 72 306 121 491 132 505 c 21 26 -47 26 596 2 c 441 -17 532 -25 647 -56 c 63 -18 194 -73 210 -89 c 3 -3 23 -18 44 -34 c 98 -73 177 -179 218 -292 c 58 -161 17 -459 -89 -648 c -33 -57 -96 -143 -116 -157 c -5 -4 -6 -12 -2 -19 c 5 -8 4 -11 -2 -7 c -9 6 -50 -25 -117 -85 c -11 -10 -35 -28 -53 -41 c -18 -12 -33 -25 -33 -29 c 0 -3 10 -19 23 -35 c 41 -50 95 -146 118 -213 c 20 -55 23 -86 24 -200 c 0 -131 -4 -157 -42 -290 c -37 -125 -147 -292 -252 -383 c -64 -56 -187 -117 -281 -142 c -38 -10 -124 -19 -205 -22 c -154 -5 -155 -5 -857 102 c -196 30 -368 59 -382 65 c -14 5 -30 19 -36 30 c -12 22 -9 101 5 133 c 16 37 -3 25 -37 -23 c -81 -115 -233 -212 -433 -274 c -75 -24 -174 -42 -460 -85 c -143 -22 -352 -54 -465 -71 c -113 -18 -222 -32 -243 -32 c -41 -1 -72 21 -81 56 c -3 13 -22 250 -41 527 c -20 277 -56 792 -81 1144 c -53 758 -59 854 -50 888 c 7 30 35 41 206 87 c 63 16 131 34 150 40 c 76 22 440 120 531 143 c 84 22 180 40 274 51 c 59 6 101 5 170 -4 z" stroke-linecap="round"/>
</g>
		<g transform="matrix(0.1333 0 0 -0.1333 164.8877 -143.3435)">
<path style="stroke: none; stroke-width: 1; stroke-dasharray: none; stroke-linecap: butt; stroke-dashoffset: 0; stroke-linejoin: miter; stroke-miterlimit: 4; is-custom-font: none; font-file-url: none; fill: rgb(30,95,41); fill-rule: nonzero; opacity: 1;" transform=" translate(-3536.6631, -2750.0722)" d="M 3523 2762 c -9 -6 -6 -11 7 -20 c 10 -6 21 -8 24 -3 c 8 13 -18 31 -31 23 z" stroke-linecap="round"/>
</g>
		<g transform="matrix(0.1333 0 0 -0.1333 -156.2826 -143.3337)">
<path style="stroke: none; stroke-width: 1; stroke-dasharray: none; stroke-linecap: butt; stroke-dashoffset: 0; stroke-linejoin: miter; stroke-miterlimit: 4; is-custom-font: none; font-file-url: none; fill: rgb(30,95,41); fill-rule: nonzero; opacity: 1;" transform=" translate(-1127.8848, -2750)" d="M 1110 2750 c 0 -5 9 -10 21 -10 c 11 0 17 5 14 10 c -3 6 -13 10 -21 10 c -8 0 -14 -4 -14 -10 z" stroke-linecap="round"/>
</g>
		<g transform="matrix(0.1333 0 0 -0.1333 -153.3503 -127.4753)">
<path style="stroke: none; stroke-width: 1; stroke-dasharray: none; stroke-linecap: butt; stroke-dashoffset: 0; stroke-linejoin: miter; stroke-miterlimit: 4; is-custom-font: none; font-file-url: none; fill: rgb(30,95,41); fill-rule: nonzero; opacity: 1;" transform=" translate(-1149.875, -2631.0602)" d="M 1140 2638 c 0 -9 5 -20 10 -23 c 13 -8 13 5 0 25 c -8 13 -10 13 -10 -2 z" stroke-linecap="round"/>
</g>
		<g transform="matrix(0.1333 0 0 -0.1333 162.7725 -126.6189)">
<path style="stroke: none; stroke-width: 1; stroke-dasharray: none; stroke-linecap: butt; stroke-dashoffset: 0; stroke-linejoin: miter; stroke-miterlimit: 4; is-custom-font: none; font-file-url: none; fill: rgb(30,95,41); fill-rule: nonzero; opacity: 1;" transform=" translate(-3520.7959, -2624.6379)" d="M 3516 2631 c -4 -7 -5 -15 -2 -18 c 9 -9 19 4 14 18 c -4 11 -6 11 -12 0 z" stroke-linecap="round"/>
</g>
		<g transform="matrix(0.1333 0 0 -0.1333 -160.0636 -68.63)">
<path style="stroke: none; stroke-width: 1; stroke-dasharray: none; stroke-linecap: butt; stroke-dashoffset: 0; stroke-linejoin: miter; stroke-miterlimit: 4; is-custom-font: none; font-file-url: none; fill: rgb(30,95,41); fill-rule: nonzero; opacity: 1;" transform=" translate(-1099.5799, -2189.663)" d="M 1110 2416 c -47 -13 -120 -34 -162 -47 l -78 -23 l 0 -47 c 0 -62 20 -353 25 -357 c 13 -13 220 81 310 140 c 33 22 74 58 90 81 c 26 37 30 52 33 123 c 5 95 -5 120 -53 140 c -45 19 -64 17 -165 -10 z m 80 -139 c 0 -24 -31 -56 -89 -91 c -32 -20 -64 -36 -70 -36 c -6 0 -11 18 -11 45 l 0 44 l 78 25 c 93 29 92 29 92 13 z" stroke-linecap="round"/>
</g>
		<g transform="matrix(0.1333 0 0 -0.1333 138.7 -75.4486)">
<path style="stroke: none; stroke-width: 1; stroke-dasharray: none; stroke-linecap: butt; stroke-dashoffset: 0; stroke-linejoin: miter; stroke-miterlimit: 4; is-custom-font: none; font-file-url: none; fill: rgb(30,95,41); fill-rule: nonzero; opacity: 1;" transform=" translate(-3340.3175, -2240.8144)" d="M 3122 2262 c -23 -97 -45 -187 -49 -200 c -6 -23 -6 -23 68 -17 c 203 18 329 51 388 102 c 46 39 81 120 81 188 c 0 36 -5 47 -27 63 c -46 31 -114 42 -270 42 l -148 0 l -43 -178 z m 302 30 l 38 -7 l -18 -22 c -13 -15 -45 -30 -98 -43 c -43 -11 -82 -18 -86 -15 c -4 2 -1 25 7 50 l 15 45 l 52 -1 c 28 0 68 -3 90 -7 z" stroke-linecap="round"/>
</g>
		<g transform="matrix(0.1333 0 0 -0.1333 100.5408 -76.6268)">
<path style="stroke: none; stroke-width: 1; stroke-dasharray: none; stroke-linecap: butt; stroke-dashoffset: 0; stroke-linejoin: miter; stroke-miterlimit: 4; is-custom-font: none; font-file-url: none; fill: rgb(30,95,41); fill-rule: nonzero; opacity: 1;" transform=" translate(-3054.0618, -2249.6885)" d="M 3045 2290 c -3 -5 -3 -14 0 -20 c 3 -5 0 -10 -7 -10 c -10 0 -9 -3 2 -11 c 11 -7 12 -12 3 -15 c -16 -7 -5 -34 14 -34 c 10 0 12 6 8 21 c -4 13 -2 25 5 29 c 7 4 9 16 5 29 c -7 22 -20 27 -30 11 z" stroke-linecap="round"/>
</g>
		<g transform="matrix(0.1333 0 0 -0.1333 -49.3336 -70.2397)">
<path style="stroke: none; stroke-width: 1; stroke-dasharray: none; stroke-linecap: butt; stroke-dashoffset: 0; stroke-linejoin: miter; stroke-miterlimit: 4; is-custom-font: none; font-file-url: none; fill: rgb(30,95,41); fill-rule: nonzero; opacity: 1;" transform=" translate(-1930, -2201.7952)" d="M 1920 2199 c 0 -5 5 -7 10 -4 c 6 3 10 8 10 11 c 0 2 -4 4 -10 4 c -5 0 -10 -5 -10 -11 z" stroke-linecap="round"/>
</g>
		<g transform="matrix(0.1333 0 0 -0.1333 -197.2402 -60.6199)">
<path style="stroke: none; stroke-width: 1; stroke-dasharray: none; stroke-linecap: butt; stroke-dashoffset: 0; stroke-linejoin: miter; stroke-miterlimit: 4; is-custom-font: none; font-file-url: none; fill: rgb(30,95,41); fill-rule: nonzero; opacity: 1;" transform=" translate(-820.7056, -2129.6365)" d="M 795 2170 c -3 -5 -1 -18 5 -29 c 5 -11 10 -29 10 -40 c 0 -15 6 -21 22 -21 c 20 0 21 1 3 20 c -15 16 -15 22 -5 35 c 10 12 10 18 0 30 c -14 17 -26 19 -35 5 z" stroke-linecap="round"/>
</g>
		<g transform="matrix(0.1333 0 0 -0.1333 97.9996 -60.667)">
<path style="stroke: none; stroke-width: 1; stroke-dasharray: none; stroke-linecap: butt; stroke-dashoffset: 0; stroke-linejoin: miter; stroke-miterlimit: 4; is-custom-font: none; font-file-url: none; fill: rgb(30,95,41); fill-rule: nonzero; opacity: 1;" transform=" translate(-3035, -2130)" d="M 3025 2130 c -3 -5 1 -10 10 -10 c 9 0 13 5 10 10 c -3 6 -8 10 -10 10 c -2 0 -7 -4 -10 -10 z" stroke-linecap="round"/>
</g>
		<g transform="matrix(0.1333 0 0 -0.1333 94.6412 -56.3046)">
<path style="stroke: none; stroke-width: 1; stroke-dasharray: none; stroke-linecap: butt; stroke-dashoffset: 0; stroke-linejoin: miter; stroke-miterlimit: 4; is-custom-font: none; font-file-url: none; fill: rgb(30,95,41); fill-rule: nonzero; opacity: 1;" transform=" translate(-3009.8134, -2097.2815)" d="M 3000 2095 c 7 -8 17 -12 22 -9 c 6 4 5 10 -3 15 c -22 14 -33 10 -19 -6 z" stroke-linecap="round"/>
</g>
		<g transform="matrix(0.1333 0 0 -0.1333 -120.934 -54.0003)">
<path style="stroke: none; stroke-width: 1; stroke-dasharray: none; stroke-linecap: butt; stroke-dashoffset: 0; stroke-linejoin: miter; stroke-miterlimit: 4; is-custom-font: none; font-file-url: none; fill: rgb(30,95,41); fill-rule: nonzero; opacity: 1;" transform=" translate(-1392.998, -2080)" d="M 1380 2080 c 0 -5 4 -10 9 -10 c 6 0 13 5 16 10 c 3 6 -1 10 -9 10 c -9 0 -16 -4 -16 -10 z" stroke-linecap="round"/>
</g>
		<g transform="matrix(0.1333 0 0 -0.1333 69.6076 -52.1363)">
<path style="stroke: none; stroke-width: 1; stroke-dasharray: none; stroke-linecap: butt; stroke-dashoffset: 0; stroke-linejoin: miter; stroke-miterlimit: 4; is-custom-font: none; font-file-url: none; fill: rgb(30,95,41); fill-rule: nonzero; opacity: 1;" transform=" translate(-2822.0609, -2066.019)" d="M 2806 2071 c -3 -5 1 -12 10 -15 c 20 -8 29 -1 19 13 c -8 13 -22 14 -29 2 z" stroke-linecap="round"/>
</g>
		<g transform="matrix(0.1333 0 0 -0.1333 60.5662 -50.8498)">
<path style="stroke: none; stroke-width: 1; stroke-dasharray: none; stroke-linecap: butt; stroke-dashoffset: 0; stroke-linejoin: miter; stroke-miterlimit: 4; is-custom-font: none; font-file-url: none; fill: rgb(30,95,41); fill-rule: nonzero; opacity: 1;" transform=" translate(-2754.25, -2056.3706)" d="M 2740 2062 c 0 -5 7 -13 16 -16 c 10 -4 14 -1 12 6 c -5 15 -28 23 -28 10 z" stroke-linecap="round"/>
</g>
		<g transform="matrix(0.1333 0 0 -0.1333 172.6661 -48.3255)">
<path style="stroke: none; stroke-width: 1; stroke-dasharray: none; stroke-linecap: butt; stroke-dashoffset: 0; stroke-linejoin: miter; stroke-miterlimit: 4; is-custom-font: none; font-file-url: none; fill: rgb(30,95,41); fill-rule: nonzero; opacity: 1;" transform=" translate(-3595, -2037.4375)" d="M 3580 2041 c 0 -5 7 -11 15 -15 c 9 -3 15 0 15 9 c 0 8 -7 15 -15 15 c -8 0 -15 -4 -15 -9 z" stroke-linecap="round"/>
</g>
		<g transform="matrix(0.1333 0 0 -0.1333 -63.9271 -47.3353)">
<path style="stroke: none; stroke-width: 1; stroke-dasharray: none; stroke-linecap: butt; stroke-dashoffset: 0; stroke-linejoin: miter; stroke-miterlimit: 4; is-custom-font: none; font-file-url: none; fill: rgb(30,95,41); fill-rule: nonzero; opacity: 1;" transform=" translate(-1820.5522, -2030.0122)" d="M 1815 2030 c -19 -8 -19 -9 3 -9 c 12 -1 22 4 22 9 c 0 6 -1 10 -2 9 c -2 0 -12 -4 -23 -9 z" stroke-linecap="round"/>
</g>
		<g transform="matrix(0.1333 0 0 -0.1333 -113.1092 -43.3704)">
<path style="stroke: none; stroke-width: 1; stroke-dasharray: none; stroke-linecap: butt; stroke-dashoffset: 0; stroke-linejoin: miter; stroke-miterlimit: 4; is-custom-font: none; font-file-url: none; fill: rgb(30,95,41); fill-rule: nonzero; opacity: 1;" transform=" translate(-1451.6876, -2000.2702)" d="M 1436 2009 c -23 -33 -2 -52 33 -30 c 11 7 11 12 -2 31 l -15 21 l -16 -22 z" stroke-linecap="round"/>
</g>
		<g transform="matrix(0.1333 0 0 -0.1333 159.4478 -46.6924)">
<path style="stroke: none; stroke-width: 1; stroke-dasharray: none; stroke-linecap: butt; stroke-dashoffset: 0; stroke-linejoin: miter; stroke-miterlimit: 4; is-custom-font: none; font-file-url: none; fill: rgb(30,95,41); fill-rule: nonzero; opacity: 1;" transform=" translate(-3495.8618, -2025.1924)" d="M 3488 2023 c 7 -3 16 -2 19 1 c 4 3 -2 6 -13 5 c -11 0 -14 -3 -6 -6 z" stroke-linecap="round"/>
</g>
		<g transform="matrix(0.1333 0 0 -0.1333 -195.3339 -43.6396)">
<path style="stroke: none; stroke-width: 1; stroke-dasharray: none; stroke-linecap: butt; stroke-dashoffset: 0; stroke-linejoin: miter; stroke-miterlimit: 4; is-custom-font: none; font-file-url: none; fill: rgb(30,95,41); fill-rule: nonzero; opacity: 1;" transform=" translate(-835, -2002.2952)" d="M 820 2000 c 0 -5 7 -7 15 -4 c 8 4 15 8 15 10 c 0 2 -7 4 -15 4 c -8 0 -15 -4 -15 -10 z" stroke-linecap="round"/>
</g>
		<g transform="matrix(0.1333 0 0 -0.1333 170.9057 -43.3336)">
<path style="stroke: none; stroke-width: 1; stroke-dasharray: none; stroke-linecap: butt; stroke-dashoffset: 0; stroke-linejoin: miter; stroke-miterlimit: 4; is-custom-font: none; font-file-url: none; fill: rgb(30,95,41); fill-rule: nonzero; opacity: 1;" transform=" translate(-3581.7952, -2000)" d="M 3575 2000 c 3 -5 8 -10 11 -10 c 2 0 4 5 4 10 c 0 6 -5 10 -11 10 c -5 0 -7 -4 -4 -10 z" stroke-linecap="round"/>
</g>
		<g transform="matrix(0.1333 0 0 -0.1333 -141.8855 -42.6924)">
<path style="stroke: none; stroke-width: 1; stroke-dasharray: none; stroke-linecap: butt; stroke-dashoffset: 0; stroke-linejoin: miter; stroke-miterlimit: 4; is-custom-font: none; font-file-url: none; fill: rgb(30,95,41); fill-rule: nonzero; opacity: 1;" transform=" translate(-1235.8618, -1995.1924)" d="M 1228 1993 c 7 -3 16 -2 19 1 c 4 3 -2 6 -13 5 c -11 0 -14 -3 -6 -6 z" stroke-linecap="round"/>
</g>
		<g transform="matrix(0.1333 0 0 -0.1333 245.5724 -42.0003)">
<path style="stroke: none; stroke-width: 1; stroke-dasharray: none; stroke-linecap: butt; stroke-dashoffset: 0; stroke-linejoin: miter; stroke-miterlimit: 4; is-custom-font: none; font-file-url: none; fill: rgb(30,95,41); fill-rule: nonzero; opacity: 1;" transform=" translate(-4141.7952, -1990)" d="M 4135 1990 c 3 -5 8 -10 11 -10 c 2 0 4 5 4 10 c 0 6 -5 10 -11 10 c -5 0 -7 -4 -4 -10 z" stroke-linecap="round"/>
</g>
		<g transform="matrix(0.1333 0 0 -0.1333 -197.334 -39.3336)">
<path style="stroke: none; stroke-width: 1; stroke-dasharray: none; stroke-linecap: butt; stroke-dashoffset: 0; stroke-linejoin: miter; stroke-miterlimit: 4; is-custom-font: none; font-file-url: none; fill: rgb(30,95,41); fill-rule: nonzero; opacity: 1;" transform=" translate(-820, -1970)" d="M 800 1970 c 0 -5 9 -10 20 -10 c 11 0 20 5 20 10 c 0 6 -9 10 -20 10 c -11 0 -20 -4 -20 -10 z" stroke-linecap="round"/>
</g>
		<g transform="matrix(0.1333 0 0 -0.1333 175.4953 -34.9981)">
<path style="stroke: none; stroke-width: 1; stroke-dasharray: none; stroke-linecap: butt; stroke-dashoffset: 0; stroke-linejoin: miter; stroke-miterlimit: 4; is-custom-font: none; font-file-url: none; fill: rgb(30,95,41); fill-rule: nonzero; opacity: 1;" transform=" translate(-3616.2201, -1937.4801)" d="M 3602 1947 c -13 -15 -3 -33 18 -32 c 18 0 23 45 5 45 c -7 0 -17 -6 -23 -13 z" stroke-linecap="round"/>
</g>
		<g transform="matrix(0.1333 0 0 -0.1333 -118.9064 -30.0003)">
<path style="stroke: none; stroke-width: 1; stroke-dasharray: none; stroke-linecap: butt; stroke-dashoffset: 0; stroke-linejoin: miter; stroke-miterlimit: 4; is-custom-font: none; font-file-url: none; fill: rgb(30,95,41); fill-rule: nonzero; opacity: 1;" transform=" translate(-1408.2048, -1900)" d="M 1400 1900 c 0 -5 5 -10 11 -10 c 5 0 7 5 4 10 c -3 6 -8 10 -11 10 c -2 0 -4 -4 -4 -10 z" stroke-linecap="round"/>
</g>
		<g transform="matrix(0.1333 0 0 -0.1333 -220.4019 -27.9967)">
<path style="stroke: none; stroke-width: 1; stroke-dasharray: none; stroke-linecap: butt; stroke-dashoffset: 0; stroke-linejoin: miter; stroke-miterlimit: 4; is-custom-font: none; font-file-url: none; fill: rgb(30,95,41); fill-rule: nonzero; opacity: 1;" transform=" translate(-646.9895, -1884.9714)" d="M 637 1894 c -8 -8 1 -24 14 -24 c 5 0 9 7 9 15 c 0 15 -12 20 -23 9 z" stroke-linecap="round"/>
</g>
		<g transform="matrix(0.1333 0 0 -0.1333 173.5724 -27.3336)">
<path style="stroke: none; stroke-width: 1; stroke-dasharray: none; stroke-linecap: butt; stroke-dashoffset: 0; stroke-linejoin: miter; stroke-miterlimit: 4; is-custom-font: none; font-file-url: none; fill: rgb(30,95,41); fill-rule: nonzero; opacity: 1;" transform=" translate(-3601.7952, -1880)" d="M 3595 1880 c -3 -5 -1 -10 4 -10 c 6 0 11 5 11 10 c 0 6 -2 10 -4 10 c -3 0 -8 -4 -11 -10 z" stroke-linecap="round"/>
</g>
		<g transform="matrix(0.1333 0 0 -0.1333 -228.5522 -24.0258)">
<path style="stroke: none; stroke-width: 1; stroke-dasharray: none; stroke-linecap: butt; stroke-dashoffset: 0; stroke-linejoin: miter; stroke-miterlimit: 4; is-custom-font: none; font-file-url: none; fill: rgb(30,95,41); fill-rule: nonzero; opacity: 1;" transform=" translate(-585.8618, -1855.1924)" d="M 578 1853 c 7 -3 16 -2 19 1 c 4 3 -2 6 -13 5 c -11 0 -14 -3 -6 -6 z" stroke-linecap="round"/>
</g>
		<g transform="matrix(0.1333 0 0 -0.1333 166.9057 -23.3336)">
<path style="stroke: none; stroke-width: 1; stroke-dasharray: none; stroke-linecap: butt; stroke-dashoffset: 0; stroke-linejoin: miter; stroke-miterlimit: 4; is-custom-font: none; font-file-url: none; fill: rgb(30,95,41); fill-rule: nonzero; opacity: 1;" transform=" translate(-3551.7952, -1850)" d="M 3545 1850 c 3 -5 8 -10 11 -10 c 2 0 4 5 4 10 c 0 6 -5 10 -11 10 c -5 0 -7 -4 -4 -10 z" stroke-linecap="round"/>
</g>
		<g transform="matrix(0.1333 0 0 -0.1333 225.3565 -23.9668)">
<path style="stroke: none; stroke-width: 1; stroke-dasharray: none; stroke-linecap: butt; stroke-dashoffset: 0; stroke-linejoin: miter; stroke-miterlimit: 4; is-custom-font: none; font-file-url: none; fill: rgb(30,95,41); fill-rule: nonzero; opacity: 1;" transform=" translate(-3990.1777, -1854.75)" d="M 3978 1853 c 6 -2 18 -2 25 0 c 6 3 1 5 -13 5 c -14 0 -19 -2 -12 -5 z" stroke-linecap="round"/>
</g>
		<g transform="matrix(0.1333 0 0 -0.1333 140.8911 -12.2567)">
<path style="stroke: none; stroke-width: 1; stroke-dasharray: none; stroke-linecap: butt; stroke-dashoffset: 0; stroke-linejoin: miter; stroke-miterlimit: 4; is-custom-font: none; font-file-url: none; fill: rgb(30,95,41); fill-rule: nonzero; opacity: 1;" transform=" translate(-3356.6868, -1766.9215)" d="M 3345 1771 c -6 -11 9 -23 19 -14 c 9 9 7 23 -3 23 c -6 0 -12 -4 -16 -9 z" stroke-linecap="round"/>
</g>
		<g transform="matrix(0.1333 0 0 -0.1333 -140.6672 -11.267)">
<path style="stroke: none; stroke-width: 1; stroke-dasharray: none; stroke-linecap: butt; stroke-dashoffset: 0; stroke-linejoin: miter; stroke-miterlimit: 4; is-custom-font: none; font-file-url: none; fill: rgb(30,95,41); fill-rule: nonzero; opacity: 1;" transform=" translate(-1245, -1759.5)" d="M 1232 1759 c 2 -6 8 -10 13 -10 c 5 0 11 4 13 10 c 2 6 -4 11 -13 11 c -9 0 -15 -5 -13 -11 z" stroke-linecap="round"/>
</g>
		<g transform="matrix(0.1333 0 0 -0.1333 178.6663 -2.2397)">
<path style="stroke: none; stroke-width: 1; stroke-dasharray: none; stroke-linecap: butt; stroke-dashoffset: 0; stroke-linejoin: miter; stroke-miterlimit: 4; is-custom-font: none; font-file-url: none; fill: rgb(30,95,41); fill-rule: nonzero; opacity: 1;" transform=" translate(-3640, -1691.7952)" d="M 3630 1689 c 0 -5 5 -7 10 -4 c 6 3 10 8 10 11 c 0 2 -4 4 -10 4 c -5 0 -10 -5 -10 -11 z" stroke-linecap="round"/>
</g>
		<g transform="matrix(0.1333 0 0 -0.1333 110.2605 57.6409)">
<path style="stroke: none; stroke-width: 1; stroke-dasharray: none; stroke-linecap: butt; stroke-dashoffset: 0; stroke-linejoin: miter; stroke-miterlimit: 4; is-custom-font: none; font-file-url: none; fill: rgb(30,95,41); fill-rule: nonzero; opacity: 1;" transform=" translate(-3127.0156, -1242.6421)" d="M 3051 1439 c -52 -5 -96 -11 -98 -13 c -4 -3 -73 -357 -73 -373 c 0 -18 126 -17 211 1 c 163 35 281 139 283 251 c 2 118 -92 157 -323 134 z m 169 -158 c -13 -25 -56 -55 -99 -69 c -58 -20 -64 -17 -58 29 c 3 23 11 46 19 50 c 7 5 44 9 81 9 c 64 0 67 -1 57 -19 z" stroke-linecap="round"/>
</g>
		<g transform="matrix(0.1333 0 0 -0.1333 -148.1979 67.2701)">
<path style="stroke: none; stroke-width: 1; stroke-dasharray: none; stroke-linecap: butt; stroke-dashoffset: 0; stroke-linejoin: miter; stroke-miterlimit: 4; is-custom-font: none; font-file-url: none; fill: rgb(30,95,41); fill-rule: nonzero; opacity: 1;" transform=" translate(-1188.5711, -1170.4118)" d="M 1200 1405 c -25 -7 -79 -27 -122 -44 c -42 -17 -81 -31 -86 -31 c -29 0 -30 -29 -10 -215 c 12 -105 22 -191 23 -192 c 1 -2 37 9 80 23 c 144 47 269 146 305 242 c 25 67 25 105 0 157 c -34 70 -91 89 -190 60 z m 60 -154 c 0 -10 -10 -31 -22 -46 c -27 -35 -98 -86 -109 -79 c -5 3 -9 27 -9 55 c 0 35 4 49 14 49 c 8 0 33 9 57 20 c 55 25 69 25 69 1 z" stroke-linecap="round"/>
</g>
		<g transform="matrix(0.1333 0 0 -0.1333 38.0573 46.9105)">
<path style="stroke: none; stroke-width: 1; stroke-dasharray: none; stroke-linecap: butt; stroke-dashoffset: 0; stroke-linejoin: miter; stroke-miterlimit: 4; is-custom-font: none; font-file-url: none; fill: rgb(30,95,41); fill-rule: nonzero; opacity: 1;" transform=" translate(-2585.4328, -1323.1637)" d="M 2576 1329 c -8 -41 0 -49 15 -15 c 9 18 9 30 2 37 c -7 7 -12 0 -17 -22 z" stroke-linecap="round"/>
</g>
		<g transform="matrix(0.1333 0 0 -0.1333 -221.3337 75.3324)">
<path style="stroke: none; stroke-width: 1; stroke-dasharray: none; stroke-linecap: butt; stroke-dashoffset: 0; stroke-linejoin: miter; stroke-miterlimit: 4; is-custom-font: none; font-file-url: none; fill: rgb(30,95,41); fill-rule: nonzero; opacity: 1;" transform=" translate(-640, -1110)" d="M 630 1116 c 0 -14 5 -28 10 -31 c 6 -3 10 5 10 19 c 0 14 -4 28 -10 31 c -6 3 -10 -5 -10 -19 z" stroke-linecap="round"/>
</g>
		<g transform="matrix(0.1333 0 0 -0.1333 32.6574 79.1589)">
<path style="stroke: none; stroke-width: 1; stroke-dasharray: none; stroke-linecap: butt; stroke-dashoffset: 0; stroke-linejoin: miter; stroke-miterlimit: 4; is-custom-font: none; font-file-url: none; fill: rgb(30,95,41); fill-rule: nonzero; opacity: 1;" transform=" translate(-2544.9344, -1081.2957)" d="M 2530 1086 c 0 -25 5 -48 12 -52 c 8 -5 9 3 5 29 c -3 20 -1 39 4 42 c 14 9 11 25 -6 25 c -11 0 -15 -12 -15 -44 z" stroke-linecap="round"/>
</g>
		<g transform="matrix(0.1333 0 0 -0.1333 29.9994 89.0079)">
<path style="stroke: none; stroke-width: 1; stroke-dasharray: none; stroke-linecap: butt; stroke-dashoffset: 0; stroke-linejoin: miter; stroke-miterlimit: 4; is-custom-font: none; font-file-url: none; fill: rgb(30,95,41); fill-rule: nonzero; opacity: 1;" transform=" translate(-2525, -1007.4375)" d="M 2510 1005 c 0 -9 6 -12 15 -9 c 8 4 15 10 15 15 c 0 5 -7 9 -15 9 c -8 0 -15 -7 -15 -15 z" stroke-linecap="round"/>
</g>
		<g transform="matrix(0.1333 0 0 -0.1333 122.9057 95.3329)">
<path style="stroke: none; stroke-width: 1; stroke-dasharray: none; stroke-linecap: butt; stroke-dashoffset: 0; stroke-linejoin: miter; stroke-miterlimit: 4; is-custom-font: none; font-file-url: none; fill: rgb(30,95,41); fill-rule: nonzero; opacity: 1;" transform=" translate(-3221.7952, -960)" d="M 3215 960 c -3 -5 -1 -10 4 -10 c 6 0 11 5 11 10 c 0 6 -2 10 -4 10 c -3 0 -8 -4 -11 -10 z" stroke-linecap="round"/>
</g>
		<g transform="matrix(0.1333 0 0 -0.1333 29.333 96.6663)">
<path style="stroke: none; stroke-width: 1; stroke-dasharray: none; stroke-linecap: butt; stroke-dashoffset: 0; stroke-linejoin: miter; stroke-miterlimit: 4; is-custom-font: none; font-file-url: none; fill: rgb(30,95,41); fill-rule: nonzero; opacity: 1;" transform=" translate(-2520, -950)" d="M 2510 950 c 0 -5 5 -10 10 -10 c 6 0 10 5 10 10 c 0 6 -4 10 -10 10 c -5 0 -10 -4 -10 -10 z" stroke-linecap="round"/>
</g>
		<g transform="matrix(0.1333 0 0 -0.1333 -217.1229 108.4361)">
<path style="stroke: none; stroke-width: 1; stroke-dasharray: none; stroke-linecap: butt; stroke-dashoffset: 0; stroke-linejoin: miter; stroke-miterlimit: 4; is-custom-font: none; font-file-url: none; fill: rgb(30,95,41); fill-rule: nonzero; opacity: 1;" transform=" translate(-671.5826, -861.7171)" d="M 656 901 c -9 -14 5 -69 20 -82 c 11 -9 14 -7 14 9 c 0 11 -7 25 -15 32 c -11 9 -13 16 -5 24 c 5 5 10 14 10 18 c 0 11 -17 10 -24 -1 z" stroke-linecap="round"/>
</g>
		<g transform="matrix(0.1333 0 0 -0.1333 51.8719 118.9229)">
<path style="stroke: none; stroke-width: 1; stroke-dasharray: none; stroke-linecap: butt; stroke-dashoffset: 0; stroke-linejoin: miter; stroke-miterlimit: 4; is-custom-font: none; font-file-url: none; fill: rgb(30,95,41); fill-rule: nonzero; opacity: 1;" transform=" translate(-2689.0518, -783.0472)" d="M 2706 839 c -15 -39 -29 -81 -30 -95 c -2 -13 -10 -32 -19 -42 c -26 -28 -21 -42 16 -42 l 33 0 l 18 121 c 9 67 15 123 13 125 c -2 2 -16 -28 -31 -67 z" stroke-linecap="round"/>
</g>
		<g transform="matrix(0.1333 0 0 -0.1333 -216.6763 118.6959)">
<path style="stroke: none; stroke-width: 1; stroke-dasharray: none; stroke-linecap: butt; stroke-dashoffset: 0; stroke-linejoin: miter; stroke-miterlimit: 4; is-custom-font: none; font-file-url: none; fill: rgb(30,95,41); fill-rule: nonzero; opacity: 1;" transform=" translate(-674.9309, -784.7778)" d="M 663 783 c 0 -7 5 -12 11 -10 c 15 5 18 24 3 24 c -8 0 -14 -6 -14 -14 z" stroke-linecap="round"/>
</g>
		<g transform="matrix(0.1333 0 0 -0.1333 -183.8253 141.0411)">
<path style="stroke: none; stroke-width: 1; stroke-dasharray: none; stroke-linecap: butt; stroke-dashoffset: 0; stroke-linejoin: miter; stroke-miterlimit: 4; is-custom-font: none; font-file-url: none; fill: rgb(30,95,41); fill-rule: nonzero; opacity: 1;" transform=" translate(-921.3178, -617.1602)" d="M 907 740 c -4 -14 -8 -76 -10 -137 l -4 -113 l 26 7 c 14 3 28 7 30 9 c 3 2 -5 61 -16 132 c -13 86 -22 119 -26 102 z" stroke-linecap="round"/>
</g>
		<g transform="matrix(0.1333 0 0 -0.1333 -214.667 125.9996)">
<path style="stroke: none; stroke-width: 1; stroke-dasharray: none; stroke-linecap: butt; stroke-dashoffset: 0; stroke-linejoin: miter; stroke-miterlimit: 4; is-custom-font: none; font-file-url: none; fill: rgb(30,95,41); fill-rule: nonzero; opacity: 1;" transform=" translate(-690, -730)" d="M 680 730 c 0 -5 5 -10 10 -10 c 6 0 10 5 10 10 c 0 6 -4 10 -10 10 c -5 0 -10 -4 -10 -10 z" stroke-linecap="round"/>
</g>
		<g transform="matrix(0.1333 0 0 -0.1333 38.2182 137.3451)">
<path style="stroke: none; stroke-width: 1; stroke-dasharray: none; stroke-linecap: butt; stroke-dashoffset: 0; stroke-linejoin: miter; stroke-miterlimit: 4; is-custom-font: none; font-file-url: none; fill: rgb(30,95,41); fill-rule: nonzero; opacity: 1;" transform=" translate(-2586.6397, -644.9048)" d="M 2580 649 c -13 -24 -4 -41 10 -19 c 10 16 13 40 5 40 c -2 0 -9 -9 -15 -21 z" stroke-linecap="round"/>
</g>
		<g transform="matrix(0.1333 0 0 -0.1333 -193.3337 162.6659)">
<path style="stroke: none; stroke-width: 1; stroke-dasharray: none; stroke-linecap: butt; stroke-dashoffset: 0; stroke-linejoin: miter; stroke-miterlimit: 4; is-custom-font: none; font-file-url: none; fill: rgb(30,95,41); fill-rule: nonzero; opacity: 1;" transform=" translate(-850, -455)" d="M 840 455 c 0 -15 4 -24 10 -20 c 6 3 10 12 10 20 c 0 8 -4 17 -10 20 c -6 4 -10 -5 -10 -20 z" stroke-linecap="round"/>
</g>
</g>
</g>
</svg>